<svg xmlns="http://www.w3.org/2000/svg" viewBox="0 0 128 128"><linearGradient id="b" x1="108.00134" x2="20.00134" y1="122" y2="6" gradientUnits="userSpaceOnUse"><stop offset="0" stop-color="#e6e6e6"/><stop offset="1" stop-color="#fff"/></linearGradient><linearGradient id="a" x1="122.75008" x2="111.74973" y1="991.62115" y2="977.11713" gradientTransform="matrix(7.99974 0 0 7.99778 -873.96742 -7808.7674)" gradientUnits="userSpaceOnUse"><stop offset="0" stop-color="#535353"/><stop offset="1" stop-color="#7e7e7e"/></linearGradient><path fill="url(#a)" d="M17.253295 0c-.25037 0-.50072.011156-.75.035156-3.66708.6998-4.56576 2.2662469-4.5 5.9980468V122.00195c.0004 4.1875 1.81149 5.99765 6 5.99805h91.998055c4.1885-.0004 5.99764-1.81055 5.99804-5.99805V50.183594c.048-2.1119-.78004-4.230247-2.25-5.748047L71.589245 2.2851562c-1.51819-1.4691999-3.63759-2.2988999-5.75-2.25h-47.83595c-.24919-.024-.49962-.0351562-.75-.0351562zm70.00978.013672c-.20997 0-.41948.016828-.62695.048828-2.66247.8528-3.55843 4.904547-1.50586 6.810547L109.22596 31.09375c2.22593 2.1217 6.6581.306209 6.77538-2.775391V4.097656C116.0011 1.9839562 114.08836.0628 111.98573.0625H87.891975c-.20758-.032-.41894-.048828-.6289-.048828z"/><path fill="url(#b)" d="M18.001355 6v116h92.000015V50L66.001375 6z"/></svg>