<svg height="144" viewBox="0 0 127 144" width="127" xmlns="http://www.w3.org/2000/svg"><metadata/><title>Picard_logo</title><g transform="matrix(.96402687 0 0 .96424226 2.732741 2.593913)"><path d="m127 35-61-35v144l61-35z" fill="#eb743b"/><path d="m61 144v-144l-61 35v74z" fill="#771b85"/><g transform="translate(-4.35 -2.82)"><path d="m41.81 45.3-17.97 8.7-9.75 52.41 17.17-4.41 14.45 10.24 9.75-52.41zm-3.56 18.51a5.57 5.57 0 1 1 6.49-4.46 5.57 5.57 0 0 1 -6.49 4.46z" fill="#591463"/><path d="m65.39 42.23-.62-.14c-5.77-1.35-16.44-3.83-24.17 8.8a7.54 7.54 0 0 0 -8.77 6.11 7.57 7.57 0 1 0 12.39-4.33c6.21-9.77 14.26-7.9 19.65-6.64l1.52.34zm-22.61 16.77a3.57 3.57 0 0 1 -7-1.31 3.56 3.56 0 0 1 3.5-2.92 3.67 3.67 0 0 1 .66.06 3.58 3.58 0 0 1 2.84 4.17z" fill="#591463"/><path d="m41.81 42.9-18 8.66-9.72 52.44 17.17-4.35 14.45 10.24 9.75-52.41zm-3.56 18.5a5.57 5.57 0 1 1 6.49-4.46 5.57 5.57 0 0 1 -6.49 4.46z" fill="#b66bc2"/><path d="m65.39 39.82-.62-.14c-5.77-1.35-16.44-3.83-24.17 8.8a7.54 7.54 0 0 0 -8.76 6.06 7.57 7.57 0 1 0 12.39-4.33c6.21-9.77 14.26-7.9 19.65-6.64l1.52.34zm-22.61 16.76a3.57 3.57 0 0 1 -7-1.31 3.56 3.56 0 0 1 3.5-2.92 3.66 3.66 0 0 1 .66.06 3.58 3.58 0 0 1 2.84 4.17z" fill="#fffedb"/><g opacity=".07"><path d="m87.66 94.56a2.11 2.11 0 1 1 -.23 1.6 2.1 2.1 0 0 1 .23-1.6zm12.6 22.36a2.08 2.08 0 0 1 -1.37.51 2.11 2.11 0 0 1 -1.38-3.72 2.08 2.08 0 0 1 1.37-.51 2.12 2.12 0 0 1 2.11 2.28 2.09 2.09 0 0 1 -.73 1.44z"/><path d="m79.36 48.43h.21z"/><path d="m90.73 58.08a2.07 2.07 0 0 1 .67-.66 2.11 2.11 0 1 1 1.11 3.91 2.1 2.1 0 0 1 -1.12-.33 2.13 2.13 0 0 1 -.66-2.92zm6.38-20.19a2.14 2.14 0 0 1 -2.91.65l-.1-.06a2.11 2.11 0 1 1 3.29-2.17 2.08 2.08 0 0 1 -.28 1.58z"/><path d="m113.88 49.49a2.1126109 2.1126109 0 1 1 3.57 2.26 2.14 2.14 0 0 1 -2.91.65l-.09-.06a2.1 2.1 0 0 1 -.57-2.85zm0 23.46a2.1126109 2.1126109 0 1 1 3.57 2.26 2.14 2.14 0 0 1 -2.91.65l-.09-.06a2.1 2.1 0 0 1 -.57-2.8zm0 26.3a2.1126109 2.1126109 0 1 1 3.57 2.26 2.14 2.14 0 0 1 -2.91.65l-.09-.06a2.11 2.11 0 0 1 -.57-2.84z"/><path d="m103.53 108.93a6.12 6.12 0 0 0 -10.72 4.74 19.86 19.86 0 0 1 -5.33 1.33 4 4 0 0 1 -2.22-1 10.71 10.71 0 0 0 -4.15-1.85 37.64 37.64 0 0 0 8.59-12.81 6.12 6.12 0 1 0 -5.48-9.24 6.12 6.12 0 0 0 1.62 8.06c-4.05 9.22-9.22 13.08-12.57 14.68a2 2 0 0 0 -.36.17 11.26 11.26 0 0 1 -2.56.81v4a12.59 12.59 0 0 0 4.25-1.19c5.35-1.36 6.84-.35 8.41.71a7.88 7.88 0 0 0 4.26 1.66h.31a23.61 23.61 0 0 0 7-1.72 6.13 6.13 0 0 0 4.31 1.72 6.12 6.12 0 0 0 4.64-10.1zm-15.87-16.78a2.11 2.11 0 1 1 -.23 1.6 2.1 2.1 0 0 1 .23-1.6zm12.6 22.36a2.08 2.08 0 0 1 -1.37.51 2.11 2.11 0 0 1 -1.38-3.72 2.08 2.08 0 0 1 1.37-.51 2.12 2.12 0 0 1 2.11 2.28 2.09 2.09 0 0 1 -.73 1.44z"/><path d="m79.36 46h.21z"/><path d="m101.3 33a6.12 6.12 0 1 0 -11 4.82 13.35 13.35 0 0 1 -9.94 4.29 29.15 29.15 0 0 0 -10-2.32v4a24.8 24.8 0 0 1 8.74 2.21 21.59 21.59 0 0 1 8.61 7 6.32 6.32 0 0 0 -.38.54 6.12 6.12 0 1 0 8.45-1.91 6.22 6.22 0 0 0 -4.67-.75 26 26 0 0 0 -5.34-5.57 16.35 16.35 0 0 0 7.78-5.1 6.15 6.15 0 0 0 1.77.27 6.13 6.13 0 0 0 6-7.45zm-10.57 22.67a2.07 2.07 0 0 1 .67-.66 2.11 2.11 0 1 1 1.11 3.91 2.1 2.1 0 0 1 -1.12-.33 2.13 2.13 0 0 1 -.66-2.92zm6.38-20.19a2.14 2.14 0 0 1 -2.91.65l-.1-.06a2.11 2.11 0 1 1 3.29-2.17 2.08 2.08 0 0 1 -.28 1.59z"/><path d="m110 74a6 6 0 0 0 2.11 2.65l.28.19a6.12 6.12 0 1 0 3.27-11.29h-.37a25.73 25.73 0 0 1 0-11.26h.34a6.12 6.12 0 1 0 -4.15-1.63l.07.06a28.65 28.65 0 0 0 0 14.42c-.14.13-.29.25-.43.4a6.24 6.24 0 0 0 -.63.82 6.16 6.16 0 0 0 -.71 1.58 15.2 15.2 0 0 0 -6.78 2.78c-2 1.32-4 2.57-9.64 2.67a32.64 32.64 0 0 0 -5.36-.12c-1.43.05-2.91.11-4.85 0-1.33-.07-2.1-.88-3.46-2.42-1.8-2.05-4.22-4.65-9.37-5v4c3.29.3 4.8 1.89 6.36 3.67s3.17 3.62 6.26 3.78c2.12.11 3.76.05 5.21 0a24.22 24.22 0 0 1 7.85.7c2.61.64 12.1 9.67 14.77 14.32-.11.14-.22.28-.31.43a6.1 6.1 0 0 0 1.62 8.25l.28.19a6.12 6.12 0 1 0 3.27-11.29 6.18 6.18 0 0 0 -1.54.2c-2.56-4.19-8.65-10.46-13.19-13.79a18.18 18.18 0 0 0 4.21-2.19 11.31 11.31 0 0 1 4.89-2.12zm3.88-26.92a2.1126109 2.1126109 0 1 1 3.57 2.26 2.14 2.14 0 0 1 -2.91.65l-.09-.06a2.1 2.1 0 0 1 -.57-2.84zm0 23.46a2.1126109 2.1126109 0 1 1 3.57 2.26 2.14 2.14 0 0 1 -2.91.65l-.09-.06a2.1 2.1 0 0 1 -.57-2.84zm0 26.3a2.1126109 2.1126109 0 1 1 3.57 2.26 2.14 2.14 0 0 1 -2.91.65l-.09-.06a2.11 2.11 0 0 1 -.57-2.84z"/></g><path d="m103.53 111.93a6.12 6.12 0 0 0 -10.72 4.74 19.86 19.86 0 0 1 -5.33 1.33 4 4 0 0 1 -2.22-1 10.71 10.71 0 0 0 -4.15-1.85 37.64 37.64 0 0 0 8.58-12.83 6.12 6.12 0 1 0 -5.48-9.24 6.12 6.12 0 0 0 1.62 8.06c-4.05 9.22-9.22 13.08-12.57 14.68a2 2 0 0 0 -.36.17 11.26 11.26 0 0 1 -2.56.81v4a12.59 12.59 0 0 0 4.25-1.19c5.35-1.36 6.84-.35 8.41.71a7.88 7.88 0 0 0 4.27 1.68h.31a23.61 23.61 0 0 0 7-1.72 6.13 6.13 0 0 0 4.31 1.72 6.12 6.12 0 0 0 4.64-10.1zm-15.87-16.78a2.11 2.11 0 1 1 -.23 1.6 2.1 2.1 0 0 1 .23-1.6zm12.6 22.36a2.08 2.08 0 0 1 -1.37.51 2.11 2.11 0 0 1 -1.38-3.72 2.08 2.08 0 0 1 1.37-.51 2.12 2.12 0 0 1 2.11 2.28 2.09 2.09 0 0 1 -.73 1.44z" fill="#d3562c"/><path d="m79.36 48.43h.21z"/><path d="m101.3 36a6.12 6.12 0 1 0 -11 4.82 13.35 13.35 0 0 1 -9.94 4.29 29.15 29.15 0 0 0 -10-2.32v4a24.81 24.81 0 0 1 8.74 2.21 21.59 21.59 0 0 1 8.61 7 6.32 6.32 0 0 0 -.38.54 6.12 6.12 0 1 0 8.45-1.91 6.22 6.22 0 0 0 -4.67-.75 26 26 0 0 0 -5.34-5.57 16.35 16.35 0 0 0 7.78-5.1 6.15 6.15 0 0 0 1.77.27 6.13 6.13 0 0 0 6-7.45zm-10.57 22.68a2.07 2.07 0 0 1 .67-.66 2.11 2.11 0 1 1 1.11 3.91 2.1 2.1 0 0 1 -1.12-.33 2.13 2.13 0 0 1 -.66-2.92zm6.38-20.19a2.14 2.14 0 0 1 -2.91.65l-.1-.06a2.11 2.11 0 1 1 3.29-2.17 2.08 2.08 0 0 1 -.28 1.58z" fill="#d3562c"/><path d="m110 77a6 6 0 0 0 2.11 2.65l.28.19a6.12 6.12 0 1 0 3.27-11.29h-.37a25.73 25.73 0 0 1 0-11.26h.34a6.12 6.12 0 1 0 -4.15-1.63l.07.06a28.65 28.65 0 0 0 0 14.42c-.14.13-.29.25-.43.4a6.24 6.24 0 0 0 -.63.82 6.16 6.16 0 0 0 -.71 1.58 15.2 15.2 0 0 0 -6.78 2.78c-2 1.32-4 2.57-9.64 2.67a32.64 32.64 0 0 0 -5.36-.12c-1.43.05-2.91.11-4.85 0-1.33-.07-2.1-.88-3.46-2.42-1.8-2.05-4.22-4.65-9.37-5v4c3.29.3 4.8 1.89 6.36 3.67s3.17 3.62 6.26 3.78c2.12.11 3.76.05 5.21 0a24.22 24.22 0 0 1 7.85.7c2.61.64 12.1 9.67 14.77 14.32-.11.14-.22.28-.31.43a6.1 6.1 0 0 0 1.62 8.25l.28.19a6.12 6.12 0 1 0 3.27-11.29 6.18 6.18 0 0 0 -1.54.2c-2.56-4.19-8.65-10.46-13.19-13.79a18.18 18.18 0 0 0 4.21-2.19 11.31 11.31 0 0 1 4.89-2.12zm3.88-26.92a2.1126109 2.1126109 0 1 1 3.57 2.26 2.14 2.14 0 0 1 -2.91.65l-.09-.06a2.1 2.1 0 0 1 -.57-2.84zm0 23.46a2.1126109 2.1126109 0 1 1 3.57 2.26 2.14 2.14 0 0 1 -2.91.65l-.09-.06a2.1 2.1 0 0 1 -.57-2.84zm0 26.3a2.1126109 2.1126109 0 1 1 3.57 2.26 2.14 2.14 0 0 1 -2.91.65l-.09-.06a2.11 2.11 0 0 1 -.57-2.84z" fill="#d3562c"/><path d="m103.53 108.93a6.12 6.12 0 0 0 -10.72 4.74 19.86 19.86 0 0 1 -5.33 1.33 4 4 0 0 1 -2.22-1 10.71 10.71 0 0 0 -4.15-1.85 37.64 37.64 0 0 0 8.59-12.81 6.12 6.12 0 1 0 -5.48-9.24 6.12 6.12 0 0 0 1.62 8.06c-4.05 9.22-9.22 13.08-12.57 14.68a2 2 0 0 0 -.36.17 11.26 11.26 0 0 1 -2.56.81v4a12.59 12.59 0 0 0 4.25-1.19c5.35-1.36 6.84-.35 8.41.71a7.88 7.88 0 0 0 4.26 1.66h.31a23.61 23.61 0 0 0 7-1.72 6.13 6.13 0 0 0 4.31 1.72 6.12 6.12 0 0 0 4.64-10.1zm-15.87-16.78a2.11 2.11 0 1 1 -.23 1.6 2.1 2.1 0 0 1 .23-1.6zm12.6 22.36a2.08 2.08 0 0 1 -1.37.51 2.11 2.11 0 0 1 -1.38-3.72 2.08 2.08 0 0 1 1.37-.51 2.12 2.12 0 0 1 2.11 2.28 2.09 2.09 0 0 1 -.73 1.44z" fill="#fffedb"/><path d="m79.36 46h.21z" fill="#fffedb"/><path d="m101.3 33a6.12 6.12 0 1 0 -11 4.82 13.35 13.35 0 0 1 -9.94 4.29 29.15 29.15 0 0 0 -10-2.32v4a24.8 24.8 0 0 1 8.74 2.21 21.59 21.59 0 0 1 8.61 7 6.32 6.32 0 0 0 -.38.54 6.12 6.12 0 1 0 8.45-1.91 6.22 6.22 0 0 0 -4.67-.75 26 26 0 0 0 -5.34-5.57 16.35 16.35 0 0 0 7.78-5.1 6.15 6.15 0 0 0 1.77.27 6.13 6.13 0 0 0 6-7.45zm-10.57 22.67a2.07 2.07 0 0 1 .67-.66 2.11 2.11 0 1 1 1.11 3.91 2.1 2.1 0 0 1 -1.12-.33 2.13 2.13 0 0 1 -.66-2.92zm6.38-20.19a2.14 2.14 0 0 1 -2.91.65l-.1-.06a2.11 2.11 0 1 1 3.29-2.17 2.08 2.08 0 0 1 -.28 1.59z" fill="#fffedb"/><path d="m110 74a6 6 0 0 0 2.11 2.65l.28.19a6.12 6.12 0 1 0 3.27-11.29h-.37a25.73 25.73 0 0 1 0-11.26h.34a6.12 6.12 0 1 0 -4.15-1.63l.07.06a28.65 28.65 0 0 0 0 14.42c-.14.13-.29.25-.43.4a6.24 6.24 0 0 0 -.63.82 6.16 6.16 0 0 0 -.71 1.58 15.2 15.2 0 0 0 -6.78 2.78c-2 1.32-4 2.57-9.64 2.67a32.64 32.64 0 0 0 -5.36-.12c-1.43.05-2.91.11-4.85 0-1.33-.07-2.1-.88-3.46-2.42-1.8-2.05-4.22-4.65-9.37-5v4c3.29.3 4.8 1.89 6.36 3.67s3.17 3.62 6.26 3.78c2.12.11 3.76.05 5.21 0a24.22 24.22 0 0 1 7.85.7c2.61.64 12.1 9.67 14.77 14.32-.11.14-.22.28-.31.43a6.1 6.1 0 0 0 1.62 8.25l.28.19a6.12 6.12 0 1 0 3.27-11.29 6.18 6.18 0 0 0 -1.54.2c-2.56-4.19-8.65-10.46-13.19-13.79a18.18 18.18 0 0 0 4.21-2.19 11.31 11.31 0 0 1 4.89-2.12zm3.88-26.92a2.1126109 2.1126109 0 1 1 3.57 2.26 2.14 2.14 0 0 1 -2.91.65l-.09-.06a2.1 2.1 0 0 1 -.57-2.84zm0 23.46a2.1126109 2.1126109 0 1 1 3.57 2.26 2.14 2.14 0 0 1 -2.91.65l-.09-.06a2.1 2.1 0 0 1 -.57-2.84zm0 26.3a2.1126109 2.1126109 0 1 1 3.57 2.26 2.14 2.14 0 0 1 -2.91.65l-.09-.06a2.11 2.11 0 0 1 -.57-2.84z" fill="#fffedb"/></g></g></svg>